<svg width="18" height="20" viewBox="0 0 18 20" fill="none" xmlns="http://www.w3.org/2000/svg">
<path d="M0.394308 4.80117L7.82425 0.301128C8.55654 -0.100376 9.44343 -0.100376 10.1757 0.301128L10.2077 0.319106L17.6057 4.80117C17.8506 4.94939 18 5.21466 18 5.50071V13.5288C18.004 14.4133 17.5278 15.2307 16.7563 15.6634L10.1757 19.7004C9.81897 19.8969 9.41827 19.9996 9.01077 20C8.58291 19.998 8.16303 19.8877 7.7891 19.68L1.27881 15.6841C0.490589 15.2539 0 14.4273 0 13.5288V5.50071C0 5.21466 0.149813 4.94939 0.394308 4.80117ZM9.37792 1.73056C9.1494 1.60632 8.87414 1.60192 8.64163 1.71898L2.39741 5.50071L8.60888 9.26446C8.84019 9.3955 9.12184 9.40229 9.35914 9.28244L15.603 5.50071L9.37792 1.73056ZM15.9373 14.2487C16.2006 14.1053 16.3644 13.8288 16.3636 13.5288V6.95291L10.1757 10.7003C10.0607 10.757 9.94081 10.8042 9.81817 10.8421V18.0013L15.9373 14.2487ZM2.09859 14.2703L8.18181 18.0021V10.8369C8.04797 10.7962 7.91774 10.7446 7.79229 10.6823L1.63636 6.95291V13.5288C1.64036 13.8424 1.81853 14.1277 2.09859 14.2687V14.2703Z" fill="white"/>
</svg>
