<svg width="44" height="30" viewBox="0 0 44 30" fill="none" xmlns="http://www.w3.org/2000/svg">
<path d="M35.9723 21.9355C34.8972 21.9355 33.8758 22.3566 33.1053 23.1183C32.3348 23.8889 31.9047 24.8925 31.9047 25.9677C31.9047 27.043 32.3258 28.0466 33.1053 28.8172C33.8848 29.5789 34.8972 30 35.9723 30C38.1763 30 39.9682 28.19 39.9682 25.9677C39.9682 23.7455 38.1763 21.9355 35.9723 21.9355ZM35.9723 28.2079C34.7359 28.2079 33.6966 27.1864 33.6966 25.9677C33.6966 24.7491 34.7359 23.7276 35.9723 23.7276C37.1908 23.7276 38.1763 24.7312 38.1763 25.9677C38.1763 27.2043 37.1908 28.2079 35.9723 28.2079ZM37.0116 8.50358C36.8503 8.35125 36.6353 8.27061 36.4113 8.27061H31.8151C31.3223 8.27061 30.9192 8.67383 30.9192 9.16667V16.5143C30.9192 17.0072 31.3223 17.4104 31.8151 17.4104H39.1081C39.6009 17.4104 40.0041 17.0072 40.0041 16.5143V11.595C40.0041 11.3441 39.8966 11.1022 39.7084 10.9319L37.0116 8.50358ZM38.2122 15.6183H32.7111V10.0538H36.0619L38.2122 11.9892V15.6183ZM14.0933 21.9355C13.0181 21.9355 11.9967 22.3566 11.2262 23.1183C10.4557 23.8889 10.0257 24.8925 10.0257 25.9677C10.0257 27.043 10.4468 28.0466 11.2262 28.8172C12.0057 29.5789 13.0181 30 14.0933 30C16.2973 30 18.0892 28.19 18.0892 25.9677C18.0892 23.7455 16.2973 21.9355 14.0933 21.9355ZM14.0933 28.2079C12.8569 28.2079 11.8176 27.1864 11.8176 25.9677C11.8176 24.7491 12.8569 23.7276 14.0933 23.7276C15.3117 23.7276 16.2973 24.7312 16.2973 25.9677C16.2973 27.2043 15.3117 28.2079 14.0933 28.2079ZM8.11729 23.0376H6.31643V20.6541C6.31643 20.1613 5.91326 19.7581 5.42048 19.7581C4.92771 19.7581 4.52454 20.1613 4.52454 20.6541V23.9337C4.52454 24.4265 4.92771 24.8297 5.42048 24.8297H8.11729C8.61006 24.8297 9.01324 24.4265 9.01324 23.9337C9.01324 23.4409 8.61006 23.0376 8.11729 23.0376ZM12.6597 18.1541C12.6597 17.6613 12.2566 17.2581 11.7638 17.2581H0.895948C0.403177 17.2581 0 17.6613 0 18.1541C0 18.647 0.403177 19.0502 0.895948 19.0502H11.7638C12.2566 19.0502 12.6597 18.6559 12.6597 18.1541ZM2.71472 14.9194L13.5826 14.9821C14.0753 14.9821 14.4785 14.5878 14.4875 14.095C14.4964 13.5932 14.0933 13.19 13.6005 13.19L2.73264 13.1272C2.72368 13.1272 2.72368 13.1272 2.72368 13.1272C2.23091 13.1272 1.82773 13.5215 1.82773 14.0143C1.81877 14.5161 2.22195 14.9194 2.71472 14.9194ZM4.54246 10.8513H15.4103C15.9031 10.8513 16.3063 10.448 16.3063 9.9552C16.3063 9.46236 15.9031 9.05914 15.4103 9.05914H4.54246C4.04968 9.05914 3.64651 9.46236 3.64651 9.9552C3.64651 10.448 4.04968 10.8513 4.54246 10.8513ZM43.6685 9.64158L37.2535 4.32796C37.0922 4.19355 36.8951 4.12186 36.6801 4.12186H29.1362V0.896057C29.1362 0.403226 28.733 0 28.2403 0H5.42048C4.92771 0 4.52454 0.403226 4.52454 0.896057V7.4552C4.52454 7.94803 4.92771 8.35126 5.42048 8.35126C5.91326 8.35126 6.31643 7.94803 6.31643 7.4552V1.79211H27.3533V23.0376H20.0065C19.5137 23.0376 19.1106 23.4409 19.1106 23.9337C19.1106 24.4265 19.5137 24.8297 20.0065 24.8297H30.946C31.4388 24.8297 31.842 24.4265 31.842 23.9337C31.842 23.4409 31.4388 23.0376 30.946 23.0376H29.1452V5.91398H36.3665L42.2081 10.7527L42.1454 23.0197H41.2136C40.7208 23.0197 40.3177 23.4229 40.3177 23.9158C40.3177 24.4086 40.7208 24.8118 41.2136 24.8118H43.0324C43.5251 24.8118 43.9283 24.4176 43.9283 23.9247L44 10.3405C43.991 10.0717 43.8746 9.81183 43.6685 9.64158Z" fill="white"/>
</svg>
