<svg width="17" height="22" viewBox="0 0 17 22" fill="none" xmlns="http://www.w3.org/2000/svg">
<path d="M16.4696 8.73484C16.4696 4.46987 12.9998 1 8.73479 1C4.46977 1 1 4.46987 1 8.73484C1 11.3503 2.33537 13.7949 4.51262 15.2165V17.6533C4.51262 19.9814 6.40663 21.8753 8.73469 21.8753C11.0627 21.8753 12.9568 19.9813 12.9568 17.6533V16.2846C12.9568 16.2843 12.9567 15.2166 12.9567 15.2166C15.1342 13.7949 16.4696 11.3504 16.4696 8.73484ZM11.4658 17.6534C11.4658 19.1592 10.2407 20.3843 8.73479 20.3843C7.22891 20.3843 6.00382 19.1592 6.00382 17.6534V17.0301H11.4658V17.6534ZM11.8399 14.153C11.6084 14.286 11.4658 14.5325 11.4658 14.7995V15.5391H9.48029V11.6838C10.4483 11.3689 11.1503 10.4584 11.1503 9.38661C11.1503 8.97488 10.8164 8.64106 10.4047 8.64106C9.99298 8.64106 9.65916 8.97488 9.65916 9.38661C9.65916 9.8963 9.24448 10.311 8.73479 10.311C8.2251 10.311 7.81036 9.89635 7.81036 9.38661C7.81036 8.97488 7.47654 8.64106 7.06481 8.64106C6.65308 8.64106 6.31926 8.97488 6.31926 9.38661C6.31926 10.4583 7.02113 11.3689 7.98924 11.6838V15.5391H6.00392V14.7995C6.00392 14.5325 5.86124 14.286 5.62976 14.153C3.69379 13.0408 2.4912 10.9647 2.4912 8.73484C2.4912 5.29205 5.2921 2.4911 8.73494 2.4911C12.1778 2.4911 14.9787 5.292 14.9787 8.73484C14.9786 10.9647 13.7759 13.0409 11.8399 14.153Z" fill="white" stroke="white" stroke-width="0.25"/>
</svg>
