<svg width="45" height="39" viewBox="0 0 45 39" fill="none" xmlns="http://www.w3.org/2000/svg">
<path d="M41.0346 16.6493C40.8024 16.7421 40.5331 16.7421 40.301 16.6307L33.0488 13.3343C32.5845 13.1114 32.3895 12.5543 32.6124 12.09C32.8259 11.6443 33.3552 11.44 33.8103 11.6443L38.8896 13.9564C36.466 6.70426 29.7153 1.85711 21.9431 1.85711C13.7995 1.85711 6.6774 7.29857 4.62529 15.0893C4.49532 15.5814 3.98457 15.8786 3.49246 15.7485C3.00035 15.6185 2.70314 15.1078 2.8332 14.6157C5.09895 6.01714 12.9547 0 21.9432 0C30.5139 0 37.9704 5.34857 40.6632 13.3529L42.7989 8.01363C42.9567 7.53074 43.486 7.26149 43.9689 7.41931C44.4518 7.57714 44.721 8.10643 44.5632 8.58932C44.5539 8.62649 44.5353 8.66357 44.5168 8.70074L41.5546 16.1293C41.4617 16.3615 41.2761 16.5565 41.0346 16.6493Z" fill="white"/>
<path d="M0.0566444 30.355C0.0659599 30.3364 0.0751877 30.3178 0.0751877 30.2992L3.03736 22.8707C3.13025 22.6385 3.31593 22.4435 3.55733 22.3507C3.7895 22.2578 4.05876 22.2672 4.29093 22.3693L11.5431 25.6657C12.0167 25.8607 12.2395 26.4086 12.0445 26.8821C11.8495 27.3557 11.3017 27.5786 10.8281 27.3836C10.8096 27.3742 10.791 27.365 10.7724 27.3557L5.6931 25.0436C8.13522 32.2957 14.8953 37.1429 22.6581 37.1429C30.8017 37.1429 37.9238 31.7014 39.9759 23.9107C40.1059 23.4186 40.6166 23.1214 41.1088 23.2515C41.6009 23.3814 41.8981 23.8922 41.768 24.3843C39.5116 32.9922 31.6466 39 22.658 39C14.0873 39 6.64016 33.6514 3.93801 25.6471L1.80233 30.9864C1.62587 31.4692 1.09659 31.72 0.613789 31.5435C0.130989 31.3671 -0.119724 30.8378 0.0566444 30.355Z" fill="white"/>
</svg>
