<svg width="13" height="22" viewBox="0 0 13 22" fill="none" xmlns="http://www.w3.org/2000/svg">
<path d="M7.79453 21H4.69092C4.17251 21 3.75081 20.5648 3.75081 20.0298V12.8057H1.9401C1.4217 12.8057 1 12.3704 1 11.8356V8.74002C1 8.20505 1.4217 7.76987 1.9401 7.76987H3.75081V6.21973C3.75081 4.68271 4.2185 3.37503 5.10315 2.43829C5.9918 1.49728 7.23369 1 8.69456 1L11.0615 1.00397C11.579 1.00488 12 1.44006 12 1.97412V4.84827C12 5.38324 11.5784 5.81842 11.0602 5.81842L9.46654 5.81903C8.98052 5.81903 8.85676 5.91959 8.8303 5.95041C8.78668 6.00153 8.73478 6.14603 8.73478 6.54504V7.76971H10.9404C11.1065 7.76971 11.2673 7.81198 11.4056 7.89163C11.7038 8.0636 11.8893 8.38876 11.8893 8.74017L11.8881 11.8357C11.8881 12.3704 11.4664 12.8056 10.948 12.8056H8.73478V20.0298C8.73478 20.5648 8.31293 21 7.79453 21ZM4.88698 19.8275H7.59846V12.2808C7.59846 11.9236 7.88014 11.6331 8.22613 11.6331H10.7519L10.7529 8.94235H8.22599C7.87999 8.94235 7.59846 8.65182 7.59846 8.29462V6.54504C7.59846 6.08698 7.64356 5.56604 7.97861 5.1745C8.38346 4.70117 9.02148 4.64655 9.46625 4.64655L10.8638 4.64594V2.17615L8.69367 2.17249C6.34593 2.17249 4.88698 3.72339 4.88698 6.21973V8.29462C4.88698 8.65167 4.60545 8.94235 4.25946 8.94235H2.13617V11.6331H4.25946C4.60545 11.6331 4.88698 11.9236 4.88698 12.2808V19.8275ZM11.0593 2.17645H11.0595H11.0593Z" fill="#C6A464" stroke="#C6A464" stroke-width="0.5"/>
</svg>
