<svg width="19" height="19" viewBox="0 0 19 19" fill="none" xmlns="http://www.w3.org/2000/svg">
<path d="M8.38234 12.2941C8.08617 12.293 7.80284 12.1745 7.5944 11.9644L5.91794 10.2879C5.4815 9.8515 5.4815 9.1429 5.91794 8.70649C6.35439 8.27009 7.06299 8.27005 7.4994 8.70649L8.44379 9.65089L11.5676 6.97412C12.0801 6.62989 12.7747 6.76679 13.1183 7.27923C13.4039 7.70506 13.3637 8.27001 13.0206 8.65057L9.10879 12.0035C8.90933 12.1846 8.65172 12.288 8.38234 12.2941Z" fill="#C6A464"/>
<path d="M9.5 19C4.25322 19 0 14.7468 0 9.5C0 4.25322 4.25322 0 9.5 0C14.7468 0 19 4.25322 19 9.5C19 14.7468 14.7468 19 9.5 19ZM9.5 2.23528C5.48766 2.23528 2.23528 5.48766 2.23528 9.5C2.23528 13.5123 5.48766 16.7647 9.5 16.7647C13.5123 16.7647 16.7647 13.5123 16.7647 9.5C16.7647 5.48766 13.5123 2.23528 9.5 2.23528Z" fill="#C6A464"/>
</svg>
