<svg width="21" height="21" viewBox="0 0 21 21" fill="none" xmlns="http://www.w3.org/2000/svg">
<path d="M14.5255 0H5.53627C2.48357 0 0 2.48369 0 5.53639V14.5256C0 17.5784 2.48357 20.062 5.53627 20.062H14.5255C17.5784 20.062 20.062 17.5783 20.062 14.5256V5.53639C20.0621 2.48369 17.5784 0 14.5255 0ZM18.2821 14.5256C18.2821 16.5969 16.5969 18.282 14.5256 18.282H5.53627C3.46506 18.2821 1.78 16.5969 1.78 14.5256V5.53639C1.78 3.46518 3.46506 1.78 5.53627 1.78H14.5255C16.5968 1.78 18.282 3.46518 18.282 5.53639V14.5256H18.2821Z" fill="#C6A464"/>
<path d="M10.031 4.86169C7.18052 4.86169 4.86154 7.18067 4.86154 10.0312C4.86154 12.8815 7.18052 15.2004 10.031 15.2004C12.8815 15.2004 15.2005 12.8815 15.2005 10.0312C15.2005 7.18067 12.8815 4.86169 10.031 4.86169ZM10.031 13.4203C8.16213 13.4203 6.64154 11.8999 6.64154 10.031C6.64154 8.16205 8.16201 6.64157 10.031 6.64157C11.9 6.64157 13.4205 8.16205 13.4205 10.031C13.4205 11.8999 11.8999 13.4203 10.031 13.4203Z" fill="#C6A464"/>
<path d="M15.4173 3.35242C15.0743 3.35242 14.7374 3.49126 14.4952 3.73452C14.2518 3.9766 14.1119 4.31362 14.1119 4.65775C14.1119 5.00081 14.252 5.33771 14.4952 5.58097C14.7373 5.82305 15.0743 5.96308 15.4173 5.96308C15.7614 5.96308 16.0972 5.82305 16.3405 5.58097C16.5838 5.33771 16.7226 5.00069 16.7226 4.65775C16.7226 4.31362 16.5838 3.9766 16.3405 3.73452C16.0984 3.49126 15.7614 3.35242 15.4173 3.35242Z" fill="#C6A464"/>
</svg>
