<svg width="11" height="17" viewBox="0 0 11 17" fill="none" xmlns="http://www.w3.org/2000/svg">
<path d="M7.87595 0.479617L7.87957 0.484506C8.20496 0.185777 8.63239 0 9.10719 0C10.1126 0 10.9286 0.815997 10.9286 1.82145C10.9286 2.35332 10.6979 2.82685 10.3349 3.15961L10.3385 3.1645L4.51722 8.49997L10.3386 13.8368L10.3349 13.8416C10.698 14.1731 10.9287 14.6467 10.9287 15.1785C10.9287 16.184 10.1127 17 9.10725 17C8.63246 17 8.20503 16.8142 7.87963 16.5168L7.87601 16.5216L0.590297 9.84301C0.215058 9.49692 0.000139236 9.0112 0.000139236 8.50003C0.000139236 7.98886 0.215058 7.50308 0.590297 7.15705L7.87595 0.479617Z" fill="black"/>
</svg>
