<svg width="26" height="13" viewBox="0 0 26 13" fill="none" xmlns="http://www.w3.org/2000/svg">
<path d="M0.946289 11.8851V11.8851C0.946289 12.048 1.00993 12.207 1.12818 12.324C1.24375 12.4383 1.4004 12.504 1.56518 12.504H24.4398C24.7815 12.504 25.0587 12.2268 25.0587 11.8851L25.0595 1.37037C25.0595 1.2075 24.9958 1.04844 24.8776 0.931462C24.762 0.817112 24.6054 0.751465 24.4406 0.751465H1.56665C1.22497 0.751465 0.947784 1.02864 0.947765 1.37032C0.947765 1.37033 0.947765 1.37034 0.947765 1.37035L0.946289 11.8851ZM23.821 11.2662H2.1841L2.1855 1.98924H23.8217L23.821 11.2662Z" fill="white" stroke="white" stroke-width="0.5"/>
<path d="M19.9135 3.94298C19.9135 4.28468 20.1906 4.56187 20.5323 4.56187C20.8737 4.56187 21.1512 4.28574 21.1512 3.94298V1.36889C21.1512 1.02719 20.874 0.75 20.5323 0.75C20.1906 0.75 19.9135 1.02719 19.9135 1.36889V3.94298Z" fill="white" stroke="white" stroke-width="0.5"/>
<path d="M16.15 5.59412C16.15 5.93581 16.4272 6.213 16.7689 6.213C17.1117 6.213 17.3878 5.93549 17.3878 5.59412V1.36889C17.3878 1.02719 17.1106 0.75 16.7689 0.75C16.4272 0.75 16.15 1.02719 16.15 1.36889V5.59412Z" fill="white" stroke="white" stroke-width="0.5"/>
<path d="M12.3844 3.94298C12.3844 4.28468 12.6616 4.56187 13.0033 4.56187C13.3447 4.56187 13.6222 4.28574 13.6222 3.94298V1.36889C13.6222 1.02719 13.345 0.75 13.0033 0.75C12.6616 0.75 12.3844 1.02719 12.3844 1.36889V3.94298Z" fill="white" stroke="white" stroke-width="0.5"/>
<path d="M8.61804 5.59412C8.61804 5.93581 8.89523 6.213 9.23693 6.213C9.57969 6.213 9.85582 5.93549 9.85582 5.59412V1.36889C9.85582 1.02719 9.57863 0.75 9.23693 0.75C8.89523 0.75 8.61804 1.02719 8.61804 1.36889V5.59412Z" fill="white" stroke="white" stroke-width="0.5"/>
<path d="M4.85559 3.94224C4.85559 4.28394 5.13278 4.56113 5.47448 4.56113C5.81585 4.56113 6.09336 4.285 6.09336 3.94224V1.36889C6.09336 1.02719 5.81617 0.75 5.47448 0.75C5.13278 0.75 4.85559 1.02719 4.85559 1.36889V3.94224Z" fill="white" stroke="white" stroke-width="0.5"/>
</svg>
