<svg width="13" height="19" viewBox="0 0 13 19" fill="none" xmlns="http://www.w3.org/2000/svg">
<path d="M12.6604 9.36804L11.9446 10.0664C12.0185 10.1421 12.0185 10.2733 11.9444 10.3491C10.6656 11.6565 9.04814 12.3997 7.37861 12.5939L6.49993 12.6961L5.62125 12.5939C3.95194 12.3997 2.33471 11.6567 1.05602 10.3496C0.980724 10.272 0.982106 10.1423 1.05549 10.0673C1.08973 10.0323 1.12697 10.0198 1.16177 10.0198C1.19656 10.0198 1.23381 10.0323 1.26804 10.0673L1.26821 10.0674C4.15169 13.0141 8.85043 13.0144 11.733 10.0673C11.7672 10.0323 11.8045 10.0198 11.8392 10.0198C11.874 10.0198 11.9113 10.0323 11.9455 10.0673L12.6604 9.36804ZM12.6604 9.36804C12.2063 8.90374 11.4722 8.90374 11.0181 9.36804C8.52787 11.914 4.47431 11.914 1.98294 9.36804H0.340604C-0.113535 9.83235 -0.113535 10.5828 0.340604 11.0483C1.48131 12.2146 2.86309 12.9848 4.32362 13.3656L4.79081 12.8879L5.5057 13.5872L5.39016 14.5805C5.14152 14.5515 4.89374 14.5129 4.64744 14.4646L2.19432 16.9727C1.74019 17.437 1.74019 18.1875 2.19432 18.6518C2.64846 19.1161 3.38252 19.1161 3.83666 18.6518L5.80052 16.6439L5.78504 16.6281L6.49993 15.9289L7.21482 16.6281L7.19934 16.6439L9.1632 18.6518C9.38969 18.8833 9.68703 18.9997 9.98437 18.9997C10.2817 18.9997 10.579 18.8833 10.8055 18.6518C11.2597 18.1875 11.2597 17.437 10.8055 16.9727L8.35242 14.4646C8.10611 14.5129 7.85833 14.5515 7.6097 14.5805L7.49415 13.5872L8.20904 12.8879L8.67623 13.3656C10.1368 12.9848 11.5185 12.2146 12.6593 11.0483C13.1134 10.584 13.1134 9.83235 12.6604 9.36804ZM6.22059 14.2864L6.49993 14.0008L6.77926 14.2864L10.0906 17.6719C10.1646 17.7476 10.1646 17.8769 10.0906 17.9525C10.0571 17.9868 10.0196 17.9997 9.98437 17.9997C9.94915 17.9997 9.91165 17.9868 9.87809 17.9525L7.21482 15.2296L6.49993 14.4987L5.78504 15.2296L3.12177 17.9525C3.08753 17.9875 3.05029 18 3.01549 18C2.98069 18 2.94345 17.9875 2.90922 17.9525C2.83522 17.8769 2.83522 17.7476 2.90921 17.6719L6.22059 14.2864ZM2.85401 4.74993C2.85401 2.66164 4.51075 1 6.49993 1C8.48911 1 10.1458 2.66164 10.1458 4.74993C10.1458 6.83821 8.48911 8.49985 6.49993 8.49985C4.51075 8.49985 2.85401 6.83821 2.85401 4.74993ZM3.17697 4.74993C3.17697 6.59102 4.64578 8.12489 6.49993 8.12489C8.35408 8.12489 9.82289 6.59102 9.82289 4.74993C9.82289 2.90884 8.35408 1.37496 6.49993 1.37496C4.64578 1.37496 3.17697 2.90884 3.17697 4.74993Z" stroke="#C6A464" stroke-width="2"/>
</svg>
