<svg width="11" height="17" viewBox="0 0 11 17" fill="none" xmlns="http://www.w3.org/2000/svg">
<path d="M3.05276 0.479617L3.04914 0.484506C2.72375 0.185777 2.29632 0 1.82152 0C0.816127 0 6.39416e-05 0.815997 6.39416e-05 1.82145C6.39416e-05 2.35332 0.230794 2.82685 0.593842 3.15961L0.590223 3.1645L6.41149 8.49997L0.59016 13.8368L0.593778 13.8416C0.23073 14.1731 0 14.6467 0 15.1785C0 16.184 0.816001 17 1.82146 17C2.29626 17 2.72368 16.8142 3.04908 16.5168L3.0527 16.5216L10.3384 9.84301C10.7137 9.49692 10.9286 9.0112 10.9286 8.50003C10.9286 7.98886 10.7137 7.50308 10.3384 7.15705L3.05276 0.479617Z" fill="black"/>
</svg>
