<svg width="19" height="18" viewBox="0 0 19 18" fill="none" xmlns="http://www.w3.org/2000/svg">
<path d="M1.50728 1.76153C2.49082 0.625613 3.84039 0 5.30766 0C6.40441 0 7.40883 0.369224 8.29308 1.09733C8.73926 1.46486 9.14355 1.9145 9.5 2.43932C9.85631 1.91466 10.2607 1.46486 10.7071 1.09733C11.5912 0.369224 12.5956 0 13.6923 0C15.1596 0 16.5093 0.625613 17.4929 1.76153C18.4647 2.88418 19 4.41788 19 6.08032C19 7.79138 18.4012 9.35765 17.1155 11.0096C15.9654 12.4873 14.3125 13.9873 12.3983 15.7243C11.7447 16.3175 11.0038 16.9899 10.2345 17.7061C10.0313 17.8957 9.77049 18 9.5 18C9.22965 18 8.96873 17.8957 8.76579 17.7064C7.99649 16.99 7.25517 16.3173 6.60126 15.7238C4.68738 13.9872 3.03442 12.4873 1.88432 11.0094C0.598679 9.35765 0 7.79138 0 6.08016C0 4.41788 0.535332 2.88418 1.50728 1.76153Z" fill="#C6A464"/>
</svg>
