<svg width="32" height="18" viewBox="0 0 32 18" fill="none" xmlns="http://www.w3.org/2000/svg">
<path d="M15.628 16.9242H15.6576H17.493C17.5231 16.9183 17.5629 16.9093 17.6053 16.8965C17.6409 16.8857 17.6676 16.8755 17.6867 16.8673C17.6883 16.8604 17.6898 16.8528 17.6914 16.8444C17.6981 16.8079 17.7014 16.7731 17.7029 16.7483C17.7036 16.7377 17.7038 16.7303 17.7038 16.7272C17.7039 16.7268 17.7039 16.7266 17.7039 16.7263L17.7038 16.7195L17.7037 16.6902C17.7037 16.666 17.7039 16.6327 17.7047 16.5915C17.7062 16.5092 17.7099 16.3943 17.7184 16.2564C17.7353 15.9837 17.7722 15.6063 17.8543 15.2066C17.9347 14.8155 18.0685 14.3513 18.3046 13.9346C18.5411 13.5172 18.9336 13.0581 19.5595 12.8624L19.5597 12.8623C20.298 12.6317 20.9485 12.9502 21.3656 13.2383C21.7987 13.5374 22.2129 13.9636 22.5775 14.3629C22.7557 14.558 22.9145 14.7378 23.0694 14.9131C23.2713 15.1418 23.4667 15.363 23.6899 15.6011C24.0602 15.996 24.3933 16.3094 24.699 16.5165C25.1728 16.8374 25.5622 16.9455 25.8036 16.982C25.9264 17.0005 26.0158 17.0012 26.0636 16.9993C26.0785 16.9987 26.0893 16.9979 26.0959 16.9973L26.1607 16.9847L26.2505 16.9834L30.4895 16.9248C30.496 16.9241 30.5039 16.9232 30.5133 16.9221C30.5501 16.9177 30.6052 16.9097 30.6695 16.8965C30.7883 16.8719 30.8966 16.8377 30.9756 16.7996C30.9564 16.7489 30.9222 16.6757 30.8617 16.5766L30.8595 16.573C30.8479 16.5539 30.8349 16.5306 30.8192 16.5023C30.7448 16.3688 30.6086 16.1242 30.2645 15.6824C29.8412 15.1388 29.1081 14.309 27.8615 13.1684L27.8614 13.1683C27.8215 13.1318 27.782 13.0957 27.7428 13.0598C27.1549 12.5223 26.6412 12.0527 26.3064 11.6249C25.9036 11.1105 25.6344 10.5004 25.7973 9.74305C25.9287 9.13195 26.33 8.54422 26.7625 7.96463C26.9764 7.67802 27.2542 7.32347 27.5726 6.917C27.8973 6.50262 28.2642 6.03427 28.6489 5.5289L28.6489 5.52889C29.6181 4.2556 30.2655 3.26945 30.6377 2.54457C30.7975 2.23326 30.8938 1.99435 30.946 1.81927C30.9396 1.81857 30.933 1.8179 30.9263 1.81725C30.7916 1.80417 30.6528 1.80439 30.5423 1.80903C30.4887 1.81129 30.4455 1.81441 30.4175 1.81678C30.409 1.8175 30.4019 1.81815 30.3965 1.81866C30.3931 1.81899 30.3904 1.81926 30.3883 1.81947L30.3867 1.81961L30.3863 1.81966L30.3856 1.81974L30.3846 1.81986L30.3845 1.81987L30.384 1.81993L30.332 1.82603L30.2764 1.82635L25.4681 1.85396L25.399 1.85435L25.3509 1.84796C25.3421 1.86128 25.3346 1.87382 25.3286 1.88424L25.312 1.92659C25.2878 1.98816 25.2525 2.07677 25.2072 2.18791C25.1166 2.41003 24.9854 2.72302 24.8216 3.09048C24.4959 3.82098 24.0332 4.78551 23.4966 5.68308C22.4134 7.4969 21.5999 8.54968 20.9555 9.12279C20.6326 9.40998 20.2867 9.63639 19.9096 9.73454C19.4886 9.84409 19.082 9.77798 18.7509 9.56716L18.7506 9.56698C17.9114 9.03237 17.7347 8.05957 17.6812 7.43187C17.642 6.97223 17.6569 6.42263 17.6687 5.98611C17.6735 5.8095 17.6778 5.6514 17.6778 5.52526C17.6778 4.70497 17.7068 3.99402 17.7311 3.39855C17.7333 3.34575 17.7354 3.29385 17.7374 3.24287C17.7635 2.59803 17.7772 2.1402 17.7506 1.78703C17.7238 1.43009 17.6627 1.32192 17.6467 1.29931L17.6466 1.29905C17.6432 1.29424 17.638 1.28694 17.6161 1.2737C17.5886 1.2571 17.5266 1.22687 17.4045 1.19785L17.3945 1.19548C16.9566 1.09166 16.6421 1.01708 15.3793 1.00406L15.3792 1.00406C14.5204 0.995176 13.7679 0.997504 13.1361 1.04691C12.9524 1.06128 12.7874 1.07914 12.6398 1.09995C12.7337 1.18876 12.8237 1.28815 12.9067 1.39942C13.3238 1.95762 13.4623 2.73016 13.5208 3.19397C13.5538 3.45629 13.5688 3.69213 13.5757 3.86208C13.5791 3.94766 13.5805 4.01804 13.5811 4.06853C13.5813 4.08602 13.5814 4.10117 13.5814 4.11379L13.5824 4.1297C13.5845 4.16259 13.5872 4.20979 13.5904 4.26941C13.5966 4.38856 13.6043 4.55782 13.6105 4.76199C13.6228 5.1684 13.6292 5.72193 13.6042 6.29779C13.5795 6.8646 13.5229 7.49535 13.3956 8.03952C13.3322 8.31094 13.2426 8.59917 13.1082 8.85975C12.9793 9.10992 12.7612 9.42799 12.3929 9.626L12.3924 9.62631C11.9855 9.84476 11.5218 9.88877 11.0572 9.73323C10.6428 9.59453 10.2813 9.31581 9.96045 8.99574C9.31951 8.35629 8.56493 7.26636 7.60667 5.63318L15.628 16.9242ZM15.628 16.9242L15.603 16.9257M15.628 16.9242L15.603 16.9257M15.603 16.9257L15.6028 16.9257M15.603 16.9257L15.6028 16.9257M15.6028 16.9257L15.6013 16.9258M15.6028 16.9257L15.6013 16.9258M15.6013 16.9258L15.6013 16.9257M15.6013 16.9258L15.6013 16.9257M15.6013 16.9257L15.5809 16.9265M15.6013 16.9257L15.5809 16.9265M1.12895 1.82389C1.13854 1.84519 1.14866 1.86761 1.1593 1.89114C1.26277 2.11985 1.41579 2.45283 1.61229 2.86608C2.00553 3.69309 2.57165 4.83888 3.26216 6.11207C4.65503 8.68031 6.50974 11.6832 8.43519 13.6612L1.12895 1.82389ZM1.12895 1.82389L5.51086 1.79744C5.52903 1.80217 5.54982 1.80799 5.57221 1.81496C5.66074 1.84251 5.72558 1.87298 5.75885 1.89411C5.76305 1.89913 5.77737 1.91574 5.7978 1.94876C5.81143 1.97079 5.82186 1.99061 5.82799 2.00304C5.82885 2.00478 5.82958 2.0063 5.83019 2.00756L5.83321 2.01502L5.86026 2.081C5.88372 2.13784 5.91788 2.21979 5.96176 2.32287C6.04947 2.5289 6.17632 2.82009 6.33445 3.16447C6.64925 3.85005 7.09432 4.76034 7.60657 5.63301L1.12895 1.82389ZM15.5809 16.9265C15.5598 16.9271 15.5237 16.9277 15.4739 16.9275M15.5809 16.9265L15.4739 16.9275M15.4739 16.9275C15.3742 16.927 15.2197 16.9228 15.0195 16.9068M15.4739 16.9275L15.0195 16.9068M15.0195 16.9068C14.6184 16.8749 14.0371 16.7961 13.3457 16.6077M15.0195 16.9068L13.3457 16.6077M13.3457 16.6077C11.9664 16.2316 10.149 15.4196 8.43555 13.6615L13.3457 16.6077ZM30.9998 16.8902C30.9997 16.8902 30.9995 16.8888 30.9996 16.8861C30.9998 16.8889 30.9998 16.8902 30.9998 16.8902ZM31.0518 16.7546C31.0528 16.7536 31.0534 16.7531 31.0535 16.7531C31.0535 16.7531 31.053 16.7536 31.0518 16.7546ZM0.753766 1.88305C0.750845 1.88461 0.74924 1.88531 0.749167 1.88527C0.749095 1.88524 0.750555 1.88446 0.753766 1.88305ZM18.7027 16.7194L17.7039 16.7344L17.7039 16.7342L17.7039 16.7339C17.7039 16.7342 17.7039 16.7344 18.7027 16.7194Z" stroke="#C6A464" stroke-width="2"/>
</svg>
