<svg width="27" height="20" viewBox="0 0 27 20" fill="none" xmlns="http://www.w3.org/2000/svg">
<path d="M22.0447 0H4.66164C2.09117 0 0 2.09181 0 4.66292V14.6042C0 17.1753 2.09117 19.267 4.66164 19.267H22.0448C24.6152 19.267 26.7063 17.1753 26.7063 14.6042V4.66292C26.7062 2.09181 24.615 0 22.0447 0ZM24.7957 14.6041C24.7957 16.1217 23.5616 17.3563 22.0447 17.3563H4.66164C3.14466 17.3563 1.91056 16.1217 1.91056 14.6041V4.66279C1.91056 3.14517 3.14466 1.91056 4.66164 1.91056H22.0448C23.5617 1.91056 24.7958 3.14517 24.7958 4.66279V14.6041H24.7957Z" fill="#C6A464"/>
<path d="M18.4809 8.83536L11.3995 4.16722C11.1062 3.97375 10.7303 3.95719 10.4208 4.12366C10.1114 4.29026 9.91848 4.6134 9.91848 4.96482V14.3022C9.91848 14.6537 10.1114 14.9767 10.4208 15.1434C10.5626 15.2198 10.7184 15.2575 10.8736 15.2575C11.0573 15.2575 11.2406 15.2047 11.3995 15.0997L18.4809 10.4304C18.749 10.2536 18.9103 9.95406 18.9103 9.63283C18.9103 9.31173 18.749 9.01215 18.4809 8.83536ZM11.829 12.5281V6.73871L16.2196 9.63296L11.829 12.5281Z" fill="#C6A464"/>
</svg>
